<svg width="61" height="60" viewBox="0 0 61 60" fill="none" xmlns="http://www.w3.org/2000/svg">
<g clip-path="url(#clip0_218_921)">
<path d="M60.5 30C60.5 13.4316 47.0684 0 30.5 0C13.9316 0 0.5 13.4316 0.5 30C0.5 44.9738 11.4706 57.3851 25.8125 59.6355V38.6719H18.1953V30H25.8125V23.3906C25.8125 15.8719 30.2914 11.7188 37.1441 11.7188C40.4263 11.7188 43.8594 12.3047 43.8594 12.3047V19.6875H40.0766C36.3498 19.6875 35.1875 22.0001 35.1875 24.3727V30H43.5078L42.1777 38.6719H35.1875V59.6355C49.5294 57.3851 60.5 44.974 60.5 30Z" fill="#1877F2"/>
<path d="M42.1777 38.6719L43.5078 30H35.1875V24.3727C35.1875 21.9998 36.3498 19.6875 40.0766 19.6875H43.8594V12.3047C43.8594 12.3047 40.4263 11.7188 37.1438 11.7188C30.2914 11.7188 25.8125 15.8719 25.8125 23.3906V30H18.1953V38.6719H25.8125V59.6355C27.3632 59.8785 28.9304 60.0004 30.5 60C32.0696 60.0004 33.6368 59.8785 35.1875 59.6355V38.6719H42.1777Z" fill="white"/>
</g>
<defs>
<clipPath id="clip0_218_921">
<rect width="60" height="60" fill="white" transform="translate(0.5)"/>
</clipPath>
</defs>
</svg>
