<svg width="61" height="60" viewBox="0 0 61 60" fill="none" xmlns="http://www.w3.org/2000/svg">
<path d="M21.4016 1.97343C15.4066 4.05313 10.2366 8.00046 6.6509 13.2356C3.06518 18.4708 1.25277 24.7179 1.47989 31.0592C1.707 37.4006 3.96167 43.502 7.91271 48.4672C11.8637 53.4324 17.3029 56.9998 23.4312 58.6453C28.3996 59.9273 33.605 59.9836 38.6 58.8094C43.1249 57.793 47.3083 55.6189 50.7406 52.5C54.3129 49.1547 56.9058 44.8991 58.2406 40.1906C59.6915 35.0703 59.9497 29.6856 58.9953 24.45H31.0953V36.0234H47.2531C46.9302 37.8693 46.2382 39.6311 45.2185 41.2033C44.1988 42.7755 42.8725 44.1258 41.3188 45.1734C39.3457 46.4786 37.1215 47.3567 34.7891 47.7516C32.4497 48.1865 30.0503 48.1865 27.7109 47.7516C25.3399 47.2613 23.097 46.2828 21.125 44.8781C17.9569 42.6356 15.5782 39.4496 14.3281 35.775C13.0569 32.0315 13.0569 27.9731 14.3281 24.2297C15.2179 21.6057 16.6889 19.2166 18.6313 17.2406C20.854 14.9379 23.6681 13.2919 26.7648 12.4832C29.8615 11.6745 33.1211 11.7344 36.1859 12.6562C38.5802 13.3912 40.7696 14.6753 42.5797 16.4062C44.4016 14.5937 46.2203 12.7766 48.0359 10.9547C48.9734 9.97499 49.9953 9.04218 50.9188 8.03905C48.1558 5.46785 44.9126 3.46713 41.375 2.15155C34.933 -0.187556 27.8843 -0.250418 21.4016 1.97343Z" fill="white"/>
<path d="M21.4016 1.97345C27.8837 -0.25191 34.9324 -0.190703 41.375 2.14689C44.9132 3.4714 48.1549 5.48175 50.9141 8.06251C49.9766 9.06564 48.9875 10.0031 48.0313 10.9781C46.2125 12.7938 44.3953 14.6031 42.5797 16.4063C40.7696 14.6753 38.5802 13.3912 36.1859 12.6563C33.1221 11.7311 29.8626 11.6678 26.7651 12.4732C23.6676 13.2786 20.8518 14.9215 18.6266 17.2219C16.6842 19.1978 15.2132 21.587 14.3234 24.2109L4.60625 16.6875C8.08441 9.79014 14.1066 4.51419 21.4016 1.97345Z" fill="#E33629"/>
<path d="M2.02812 24.1406C2.55041 21.5522 3.41752 19.0454 4.60625 16.6875L14.3234 24.2297C13.0523 27.9732 13.0523 32.0315 14.3234 35.775C11.0859 38.275 7.84687 40.7875 4.60625 43.3125C1.63039 37.389 0.722809 30.6399 2.02812 24.1406Z" fill="#F8BD00"/>
<path d="M31.0953 24.4453H58.9953C59.9497 29.6809 59.6915 35.0656 58.2406 40.1859C56.9058 44.8944 54.3129 49.1501 50.7406 52.4953C47.6047 50.0484 44.4547 47.6203 41.3187 45.1734C42.8735 44.1247 44.2005 42.7729 45.2202 41.1991C46.2399 39.6252 46.9314 37.8616 47.2531 36.0141H31.0953C31.0906 32.1609 31.0953 28.3031 31.0953 24.4453Z" fill="#587DBD"/>
<path d="M4.60156 43.3125C7.84219 40.8125 11.0812 38.3 14.3187 35.775C15.5713 39.4509 17.9535 42.637 21.125 44.8781C23.1032 46.2762 25.3509 47.2469 27.725 47.7281C30.0643 48.1631 32.4638 48.1631 34.8031 47.7281C37.1356 47.3333 39.3598 46.4551 41.3328 45.15C44.4688 47.5969 47.6188 50.025 50.7547 52.4719C47.3229 55.5925 43.1395 57.7682 38.6141 58.7859C33.6191 59.9602 28.4137 59.9039 23.4453 58.6219C19.5158 57.5727 15.8454 55.7231 12.6641 53.1891C9.29685 50.5157 6.54667 47.1467 4.60156 43.3125Z" fill="#319F43"/>
</svg>
