<svg width="28" height="22" viewBox="0 0 28 22" fill="none" xmlns="http://www.w3.org/2000/svg">
<path d="M3 16C4.104 16 5 14.656 5 13C5 11.344 4.104 10 3 10C1.896 10 1 11.344 1 13C1 14.656 1.896 16 3 16ZM9 7C10.104 7 11 5.656 11 4C11 2.344 10.104 1 9 1C7.896 1 7 2.344 7 4C7 5.656 7.896 7 9 7ZM19 7C20.104 7 21 5.656 21 4C21 2.344 20.104 1 19 1C17.896 1 17 2.344 17 4C17 5.656 17.896 7 19 7ZM25 16C26.104 16 27 14.656 27 13C27 11.344 26.104 10 25 10C23.896 10 23 11.344 23 13C23 14.656 23.896 16 25 16ZM20 17C20 19.76 16.76 21 14 21C11.24 21 8 19.76 8 17C8 14.24 10 10 14 10C18 10 20 14.24 20 17Z" stroke="#7FDDE5" stroke-width="1.71429" stroke-linecap="round" stroke-linejoin="round"/>
</svg>
