<svg width="26" height="24" viewBox="0 0 26 24" fill="none" xmlns="http://www.w3.org/2000/svg">
<path d="M10.6666 16.25L14.1666 17.4167C14.1666 17.4167 22.9166 15.6667 24.0833 15.6667C25.25 15.6667 25.25 16.8333 24.0833 18C22.9166 19.1667 18.8333 22.6667 15.3333 22.6667C11.8333 22.6667 9.49998 20.9167 7.16665 20.9167H1.33331" stroke="#7FDDE5" stroke-width="2" stroke-linecap="round" stroke-linejoin="round"/>
<path d="M1.33331 13.9167C2.49998 12.75 4.83331 11 7.16665 11C9.49998 11 15.0416 13.3333 15.9166 14.5C16.7916 15.6667 14.1666 17.4167 14.1666 17.4167M8.33331 7.49999V2.83332C8.33331 2.5239 8.45623 2.22716 8.67502 2.00837C8.89381 1.78957 9.19056 1.66666 9.49998 1.66666H23.5C23.8094 1.66666 24.1061 1.78957 24.3249 2.00837C24.5437 2.22716 24.6666 2.5239 24.6666 2.83332V12.1667" stroke="#7FDDE5" stroke-width="2" stroke-linecap="round" stroke-linejoin="round"/>
<path d="M13.5833 1.66666H19.4166V6.91666H13.5833V1.66666Z" stroke="#7FDDE5" stroke-width="2" stroke-linecap="round" stroke-linejoin="round"/>
</svg>
