<svg width="28" height="26" viewBox="0 0 28 26" fill="none" xmlns="http://www.w3.org/2000/svg">
<g filter="url(#filter0_d_2_1179)">
<path d="M14 17.8333C14.3305 17.8333 14.6078 17.7213 14.8318 17.4973C15.0558 17.2733 15.1674 16.9964 15.1666 16.6667V12C15.1666 11.6694 15.0546 11.3926 14.8306 11.1693C14.6066 10.9461 14.3298 10.8341 14 10.8333C13.6702 10.8326 13.3933 10.9446 13.1693 11.1693C12.9453 11.3941 12.8333 11.671 12.8333 12V16.6667C12.8333 16.9972 12.9453 17.2745 13.1693 17.4985C13.3933 17.7225 13.6702 17.8341 14 17.8333ZM14 8.5C14.3305 8.5 14.6078 8.388 14.8318 8.164C15.0558 7.94 15.1674 7.66311 15.1666 7.33333C15.1659 7.00355 15.0539 6.72666 14.8306 6.50266C14.6074 6.27866 14.3305 6.16666 14 6.16666C13.6694 6.16666 13.3925 6.27866 13.1693 6.50266C12.9461 6.72666 12.8341 7.00355 12.8333 7.33333C12.8325 7.66311 12.9445 7.94039 13.1693 8.16516C13.3941 8.38994 13.671 8.50155 14 8.5ZM14 23.6667C12.3861 23.6667 10.8694 23.3602 9.44998 22.7473C8.03054 22.1344 6.79581 21.3034 5.74581 20.2542C4.69581 19.2049 3.86476 17.9702 3.25265 16.55C2.64054 15.1298 2.33409 13.6131 2.33331 12C2.33254 10.3869 2.63898 8.87022 3.25265 7.45C3.86631 6.02977 4.69737 4.79505 5.74581 3.74583C6.79426 2.69661 8.02898 1.86555 9.44998 1.25266C10.871 0.639773 12.3876 0.333328 14 0.333328C15.6123 0.333328 17.129 0.639773 18.55 1.25266C19.971 1.86555 21.2057 2.69661 22.2541 3.74583C23.3026 4.79505 24.134 6.02977 24.7485 7.45C25.3629 8.87022 25.669 10.3869 25.6666 12C25.6643 13.6131 25.3579 15.1298 24.7473 16.55C24.1368 17.9702 23.3057 19.2049 22.2541 20.2542C21.2026 21.3034 19.9679 22.1348 18.55 22.7485C17.1321 23.3622 15.6154 23.6682 14 23.6667ZM14 21.3333C16.6055 21.3333 18.8125 20.4292 20.6208 18.6208C22.4291 16.8125 23.3333 14.6056 23.3333 12C23.3333 9.39444 22.4291 7.1875 20.6208 5.37916C18.8125 3.57083 16.6055 2.66666 14 2.66666C11.3944 2.66666 9.18748 3.57083 7.37915 5.37916C5.57081 7.1875 4.66665 9.39444 4.66665 12C4.66665 14.6056 5.57081 16.8125 7.37915 18.6208C9.18748 20.4292 11.3944 21.3333 14 21.3333Z" fill="#7FDDE5"/>
</g>
<defs>
<filter id="filter0_d_2_1179" x="-1.66669" y="0.333328" width="31.3334" height="31.3334" filterUnits="userSpaceOnUse" color-interpolation-filters="sRGB">
<feFlood flood-opacity="0" result="BackgroundImageFix"/>
<feColorMatrix in="SourceAlpha" type="matrix" values="0 0 0 0 0 0 0 0 0 0 0 0 0 0 0 0 0 0 127 0" result="hardAlpha"/>
<feOffset dy="4"/>
<feGaussianBlur stdDeviation="2"/>
<feComposite in2="hardAlpha" operator="out"/>
<feColorMatrix type="matrix" values="0 0 0 0 0 0 0 0 0 0 0 0 0 0 0 0 0 0 0.25 0"/>
<feBlend mode="normal" in2="BackgroundImageFix" result="effect1_dropShadow_2_1179"/>
<feBlend mode="normal" in="SourceGraphic" in2="effect1_dropShadow_2_1179" result="shape"/>
</filter>
</defs>
</svg>
